<mxfile host="Electron" agent="Mozilla/5.0 (Windows NT 10.0; Win64; x64) AppleWebKit/537.36 (KHTML, like Gecko) draw.io/22.1.16 Chrome/120.0.6099.109 Electron/28.1.0 Safari/537.36" modified="2024-11-13T16:39:34.729Z" version="22.1.16" etag="E95M2gTUJ-t_OXvKL5gP" type="device">
  <diagram name="Page-1" id="fNJxJ_ZL7ugiNUzL1Xjg">
    <mxGraphModel dx="2840" dy="1407" grid="1" gridSize="10" guides="1" tooltips="1" connect="1" arrows="1" fold="1" page="0" pageScale="1" pageWidth="827" pageHeight="1169" background="#2b2b2b" math="0" shadow="0">
      <root>
        <mxCell id="0" />
        <mxCell id="1" parent="0" />
        <mxCell id="mfL0TyV-P2WpPhHrdN5V-8" value="FF&lt;br&gt;256" style="whiteSpace=wrap;html=1;aspect=fixed;labelBackgroundColor=none;" parent="1" vertex="1">
          <mxGeometry x="150" y="170" width="40" height="40" as="geometry" />
        </mxCell>
        <mxCell id="mfL0TyV-P2WpPhHrdN5V-9" value="FF&lt;br&gt;256" style="whiteSpace=wrap;html=1;aspect=fixed;labelBackgroundColor=none;" parent="1" vertex="1">
          <mxGeometry x="150" y="210" width="40" height="40" as="geometry" />
        </mxCell>
        <mxCell id="mfL0TyV-P2WpPhHrdN5V-10" value="FF&lt;br&gt;256" style="whiteSpace=wrap;html=1;aspect=fixed;labelBackgroundColor=none;" parent="1" vertex="1">
          <mxGeometry x="150" y="250" width="40" height="40" as="geometry" />
        </mxCell>
        <mxCell id="mfL0TyV-P2WpPhHrdN5V-11" value="FF&lt;br&gt;256" style="whiteSpace=wrap;html=1;aspect=fixed;labelBackgroundColor=none;" parent="1" vertex="1">
          <mxGeometry x="150" y="290" width="40" height="40" as="geometry" />
        </mxCell>
        <mxCell id="mfL0TyV-P2WpPhHrdN5V-16" value="FF&lt;br&gt;256" style="whiteSpace=wrap;html=1;aspect=fixed;labelBackgroundColor=none;" parent="1" vertex="1">
          <mxGeometry x="150" y="330" width="40" height="40" as="geometry" />
        </mxCell>
        <mxCell id="mfL0TyV-P2WpPhHrdN5V-17" value="FF&lt;br&gt;256" style="whiteSpace=wrap;html=1;aspect=fixed;labelBackgroundColor=none;" parent="1" vertex="1">
          <mxGeometry x="150" y="370" width="40" height="40" as="geometry" />
        </mxCell>
        <mxCell id="mfL0TyV-P2WpPhHrdN5V-18" value="FF&lt;br&gt;256" style="whiteSpace=wrap;html=1;aspect=fixed;labelBackgroundColor=none;" parent="1" vertex="1">
          <mxGeometry x="150" y="410" width="40" height="40" as="geometry" />
        </mxCell>
        <mxCell id="mfL0TyV-P2WpPhHrdN5V-19" value="FF&lt;br&gt;256" style="whiteSpace=wrap;html=1;aspect=fixed;labelBackgroundColor=none;" parent="1" vertex="1">
          <mxGeometry x="150" y="450" width="40" height="40" as="geometry" />
        </mxCell>
        <mxCell id="mfL0TyV-P2WpPhHrdN5V-20" value="FF&lt;br&gt;256" style="whiteSpace=wrap;html=1;aspect=fixed;labelBackgroundColor=none;" parent="1" vertex="1">
          <mxGeometry x="150" y="490" width="40" height="40" as="geometry" />
        </mxCell>
        <mxCell id="mfL0TyV-P2WpPhHrdN5V-21" value="FF&lt;br&gt;256" style="whiteSpace=wrap;html=1;aspect=fixed;labelBackgroundColor=none;" parent="1" vertex="1">
          <mxGeometry x="150" y="530" width="40" height="40" as="geometry" />
        </mxCell>
        <mxCell id="mfL0TyV-P2WpPhHrdN5V-22" value="FF&lt;br&gt;256" style="whiteSpace=wrap;html=1;aspect=fixed;labelBackgroundColor=none;" parent="1" vertex="1">
          <mxGeometry x="150" y="580" width="40" height="40" as="geometry" />
        </mxCell>
        <mxCell id="mfL0TyV-P2WpPhHrdN5V-23" value="FF&lt;br&gt;256" style="whiteSpace=wrap;html=1;aspect=fixed;labelBackgroundColor=none;" parent="1" vertex="1">
          <mxGeometry x="150" y="630" width="40" height="40" as="geometry" />
        </mxCell>
        <mxCell id="mfL0TyV-P2WpPhHrdN5V-24" value="" style="strokeWidth=2;html=1;shape=mxgraph.flowchart.annotation_2;align=left;labelPosition=right;pointerEvents=1;labelBackgroundColor=none;" parent="1" vertex="1">
          <mxGeometry x="120" y="10" width="20" height="560" as="geometry" />
        </mxCell>
        <mxCell id="mfL0TyV-P2WpPhHrdN5V-25" value="Custom&lt;br style=&quot;font-size: 12px;&quot;&gt;name" style="text;html=1;align=right;verticalAlign=middle;resizable=0;points=[];autosize=1;strokeColor=none;fillColor=none;labelBackgroundColor=none;fontSize=12;" parent="1" vertex="1">
          <mxGeometry x="54" y="266.75" width="60" height="40" as="geometry" />
        </mxCell>
        <mxCell id="mfL0TyV-P2WpPhHrdN5V-26" value="FF&lt;br&gt;256" style="whiteSpace=wrap;html=1;aspect=fixed;labelBackgroundColor=none;" parent="1" vertex="1">
          <mxGeometry x="305" y="10" width="40" height="40" as="geometry" />
        </mxCell>
        <mxCell id="mfL0TyV-P2WpPhHrdN5V-27" value="FF&lt;br&gt;256" style="whiteSpace=wrap;html=1;aspect=fixed;labelBackgroundColor=none;" parent="1" vertex="1">
          <mxGeometry x="305" y="50" width="40" height="40" as="geometry" />
        </mxCell>
        <mxCell id="mfL0TyV-P2WpPhHrdN5V-28" value="" style="strokeWidth=2;html=1;shape=mxgraph.flowchart.annotation_2;align=left;labelPosition=right;pointerEvents=1;labelBackgroundColor=none;" parent="1" vertex="1">
          <mxGeometry x="280" y="10" width="20" height="80" as="geometry" />
        </mxCell>
        <mxCell id="mfL0TyV-P2WpPhHrdN5V-29" value="ID" style="text;html=1;align=right;verticalAlign=middle;resizable=0;points=[];autosize=1;strokeColor=none;fillColor=none;labelBackgroundColor=none;fontSize=12;" parent="1" vertex="1">
          <mxGeometry x="230" y="37" width="40" height="30" as="geometry" />
        </mxCell>
        <mxCell id="mfL0TyV-P2WpPhHrdN5V-30" value="FF&lt;br&gt;256" style="whiteSpace=wrap;html=1;aspect=fixed;labelBackgroundColor=none;" parent="1" vertex="1">
          <mxGeometry x="305" y="100" width="40" height="40" as="geometry" />
        </mxCell>
        <mxCell id="mfL0TyV-P2WpPhHrdN5V-31" value="FF&lt;br&gt;256" style="whiteSpace=wrap;html=1;aspect=fixed;labelBackgroundColor=none;" parent="1" vertex="1">
          <mxGeometry x="305" y="140" width="40" height="40" as="geometry" />
        </mxCell>
        <mxCell id="mfL0TyV-P2WpPhHrdN5V-32" value="" style="strokeWidth=2;html=1;shape=mxgraph.flowchart.annotation_2;align=left;labelPosition=right;pointerEvents=1;labelBackgroundColor=none;" parent="1" vertex="1">
          <mxGeometry x="280" y="100" width="20" height="80" as="geometry" />
        </mxCell>
        <mxCell id="mfL0TyV-P2WpPhHrdN5V-33" value="PV" style="text;html=1;align=right;verticalAlign=middle;resizable=0;points=[];autosize=1;strokeColor=none;fillColor=none;labelBackgroundColor=none;fontSize=12;" parent="1" vertex="1">
          <mxGeometry x="230" y="127" width="40" height="30" as="geometry" />
        </mxCell>
        <mxCell id="mfL0TyV-P2WpPhHrdN5V-34" value="FF&lt;br&gt;256" style="whiteSpace=wrap;html=1;aspect=fixed;labelBackgroundColor=none;" parent="1" vertex="1">
          <mxGeometry x="305" y="190" width="40" height="40" as="geometry" />
        </mxCell>
        <mxCell id="mfL0TyV-P2WpPhHrdN5V-35" value="FF&lt;br&gt;256" style="whiteSpace=wrap;html=1;aspect=fixed;labelBackgroundColor=none;" parent="1" vertex="1">
          <mxGeometry x="305" y="230" width="40" height="40" as="geometry" />
        </mxCell>
        <mxCell id="mfL0TyV-P2WpPhHrdN5V-36" value="" style="strokeWidth=2;html=1;shape=mxgraph.flowchart.annotation_2;align=left;labelPosition=right;pointerEvents=1;labelBackgroundColor=none;" parent="1" vertex="1">
          <mxGeometry x="280" y="190" width="20" height="160" as="geometry" />
        </mxCell>
        <mxCell id="mfL0TyV-P2WpPhHrdN5V-37" value="XP" style="text;html=1;align=right;verticalAlign=middle;resizable=0;points=[];autosize=1;strokeColor=none;fillColor=none;labelBackgroundColor=none;fontSize=12;" parent="1" vertex="1">
          <mxGeometry x="230" y="257" width="40" height="30" as="geometry" />
        </mxCell>
        <mxCell id="mfL0TyV-P2WpPhHrdN5V-38" value="FF&lt;br&gt;256" style="whiteSpace=wrap;html=1;aspect=fixed;labelBackgroundColor=none;" parent="1" vertex="1">
          <mxGeometry x="305" y="270" width="40" height="40" as="geometry" />
        </mxCell>
        <mxCell id="mfL0TyV-P2WpPhHrdN5V-39" value="FF&lt;br&gt;256" style="whiteSpace=wrap;html=1;aspect=fixed;labelBackgroundColor=none;" parent="1" vertex="1">
          <mxGeometry x="305" y="310" width="40" height="40" as="geometry" />
        </mxCell>
        <mxCell id="mfL0TyV-P2WpPhHrdN5V-40" value="FF&lt;br&gt;256" style="whiteSpace=wrap;html=1;aspect=fixed;labelBackgroundColor=none;" parent="1" vertex="1">
          <mxGeometry x="305" y="360" width="40" height="40" as="geometry" />
        </mxCell>
        <mxCell id="mfL0TyV-P2WpPhHrdN5V-41" value="FF&lt;br&gt;256" style="whiteSpace=wrap;html=1;aspect=fixed;labelBackgroundColor=none;" parent="1" vertex="1">
          <mxGeometry x="305" y="400" width="40" height="40" as="geometry" />
        </mxCell>
        <mxCell id="mfL0TyV-P2WpPhHrdN5V-42" value="" style="strokeWidth=2;html=1;shape=mxgraph.flowchart.annotation_2;align=left;labelPosition=right;pointerEvents=1;labelBackgroundColor=none;" parent="1" vertex="1">
          <mxGeometry x="280" y="360" width="20" height="80" as="geometry" />
        </mxCell>
        <mxCell id="mfL0TyV-P2WpPhHrdN5V-43" value="Height" style="text;html=1;align=right;verticalAlign=middle;resizable=0;points=[];autosize=1;strokeColor=none;fillColor=none;labelBackgroundColor=none;fontSize=12;" parent="1" vertex="1">
          <mxGeometry x="210" y="387" width="60" height="30" as="geometry" />
        </mxCell>
        <mxCell id="mfL0TyV-P2WpPhHrdN5V-44" value="FF&lt;br&gt;256" style="whiteSpace=wrap;html=1;aspect=fixed;labelBackgroundColor=none;" parent="1" vertex="1">
          <mxGeometry x="305" y="450" width="40" height="40" as="geometry" />
        </mxCell>
        <mxCell id="mfL0TyV-P2WpPhHrdN5V-45" value="FF&lt;br&gt;256" style="whiteSpace=wrap;html=1;aspect=fixed;labelBackgroundColor=none;" parent="1" vertex="1">
          <mxGeometry x="305" y="490" width="40" height="40" as="geometry" />
        </mxCell>
        <mxCell id="mfL0TyV-P2WpPhHrdN5V-46" value="" style="strokeWidth=2;html=1;shape=mxgraph.flowchart.annotation_2;align=left;labelPosition=right;pointerEvents=1;labelBackgroundColor=none;" parent="1" vertex="1">
          <mxGeometry x="280" y="450" width="20" height="80" as="geometry" />
        </mxCell>
        <mxCell id="mfL0TyV-P2WpPhHrdN5V-47" value="Weight" style="text;html=1;align=right;verticalAlign=middle;resizable=0;points=[];autosize=1;strokeColor=none;fillColor=none;labelBackgroundColor=none;fontSize=12;" parent="1" vertex="1">
          <mxGeometry x="210" y="477" width="60" height="30" as="geometry" />
        </mxCell>
        <mxCell id="mfL0TyV-P2WpPhHrdN5V-48" value="FF&lt;br&gt;256" style="whiteSpace=wrap;html=1;aspect=fixed;labelBackgroundColor=none;" parent="1" vertex="1">
          <mxGeometry x="305" y="540" width="40" height="40" as="geometry" />
        </mxCell>
        <mxCell id="mfL0TyV-P2WpPhHrdN5V-49" value="FF&lt;br&gt;256" style="whiteSpace=wrap;html=1;aspect=fixed;labelBackgroundColor=none;" parent="1" vertex="1">
          <mxGeometry x="305" y="580" width="40" height="40" as="geometry" />
        </mxCell>
        <mxCell id="mfL0TyV-P2WpPhHrdN5V-50" value="" style="strokeWidth=2;html=1;shape=mxgraph.flowchart.annotation_2;align=left;labelPosition=right;pointerEvents=1;labelBackgroundColor=none;" parent="1" vertex="1">
          <mxGeometry x="280" y="540" width="20" height="80" as="geometry" />
        </mxCell>
        <mxCell id="mfL0TyV-P2WpPhHrdN5V-51" value="ID atk 1" style="text;html=1;align=right;verticalAlign=middle;resizable=0;points=[];autosize=1;strokeColor=none;fillColor=none;labelBackgroundColor=none;fontSize=12;" parent="1" vertex="1">
          <mxGeometry x="210" y="567" width="60" height="30" as="geometry" />
        </mxCell>
        <mxCell id="mfL0TyV-P2WpPhHrdN5V-52" value="FF&lt;br&gt;256" style="whiteSpace=wrap;html=1;aspect=fixed;labelBackgroundColor=none;" parent="1" vertex="1">
          <mxGeometry x="305" y="630" width="40" height="40" as="geometry" />
        </mxCell>
        <mxCell id="mfL0TyV-P2WpPhHrdN5V-53" value="FF&lt;br&gt;256" style="whiteSpace=wrap;html=1;aspect=fixed;labelBackgroundColor=none;" parent="1" vertex="1">
          <mxGeometry x="305" y="670" width="40" height="40" as="geometry" />
        </mxCell>
        <mxCell id="mfL0TyV-P2WpPhHrdN5V-54" value="" style="strokeWidth=2;html=1;shape=mxgraph.flowchart.annotation_2;align=left;labelPosition=right;pointerEvents=1;labelBackgroundColor=none;" parent="1" vertex="1">
          <mxGeometry x="280" y="630" width="20" height="80" as="geometry" />
        </mxCell>
        <mxCell id="mfL0TyV-P2WpPhHrdN5V-55" value="ID atk 2" style="text;html=1;align=right;verticalAlign=middle;resizable=0;points=[];autosize=1;strokeColor=none;fillColor=none;labelBackgroundColor=none;fontSize=12;" parent="1" vertex="1">
          <mxGeometry x="210" y="657" width="60" height="30" as="geometry" />
        </mxCell>
        <mxCell id="mfL0TyV-P2WpPhHrdN5V-56" value="FF&lt;br&gt;256" style="whiteSpace=wrap;html=1;aspect=fixed;labelBackgroundColor=none;" parent="1" vertex="1">
          <mxGeometry x="635" y="10" width="40" height="40" as="geometry" />
        </mxCell>
        <mxCell id="mfL0TyV-P2WpPhHrdN5V-57" value="FF&lt;br&gt;256" style="whiteSpace=wrap;html=1;aspect=fixed;labelBackgroundColor=none;" parent="1" vertex="1">
          <mxGeometry x="635" y="50" width="40" height="40" as="geometry" />
        </mxCell>
        <mxCell id="mfL0TyV-P2WpPhHrdN5V-58" value="" style="strokeWidth=2;html=1;shape=mxgraph.flowchart.annotation_2;align=left;labelPosition=right;pointerEvents=1;labelBackgroundColor=none;" parent="1" vertex="1">
          <mxGeometry x="561" y="10" width="50" height="80" as="geometry" />
        </mxCell>
        <mxCell id="mfL0TyV-P2WpPhHrdN5V-59" value="ID atk 3" style="text;html=1;align=right;verticalAlign=middle;resizable=0;points=[];autosize=1;strokeColor=none;fillColor=none;labelBackgroundColor=none;fontSize=12;" parent="1" vertex="1">
          <mxGeometry x="495" y="37" width="60" height="30" as="geometry" />
        </mxCell>
        <mxCell id="mfL0TyV-P2WpPhHrdN5V-60" value="FF&lt;br&gt;256" style="whiteSpace=wrap;html=1;aspect=fixed;labelBackgroundColor=none;" parent="1" vertex="1">
          <mxGeometry x="635" y="100" width="40" height="40" as="geometry" />
        </mxCell>
        <mxCell id="mfL0TyV-P2WpPhHrdN5V-61" value="FF&lt;br&gt;256" style="whiteSpace=wrap;html=1;aspect=fixed;labelBackgroundColor=none;" parent="1" vertex="1">
          <mxGeometry x="635" y="140" width="40" height="40" as="geometry" />
        </mxCell>
        <mxCell id="mfL0TyV-P2WpPhHrdN5V-62" value="" style="strokeWidth=2;html=1;shape=mxgraph.flowchart.annotation_2;align=left;labelPosition=right;pointerEvents=1;labelBackgroundColor=none;" parent="1" vertex="1">
          <mxGeometry x="561" y="100" width="50" height="80" as="geometry" />
        </mxCell>
        <mxCell id="mfL0TyV-P2WpPhHrdN5V-63" value="ID atk 4" style="text;html=1;align=right;verticalAlign=middle;resizable=0;points=[];autosize=1;strokeColor=none;fillColor=none;labelBackgroundColor=none;fontSize=12;" parent="1" vertex="1">
          <mxGeometry x="495" y="127" width="60" height="30" as="geometry" />
        </mxCell>
        <mxCell id="mfL0TyV-P2WpPhHrdN5V-64" value="FF&lt;br&gt;256" style="whiteSpace=wrap;html=1;aspect=fixed;labelBackgroundColor=none;" parent="1" vertex="1">
          <mxGeometry x="635" y="190" width="40" height="40" as="geometry" />
        </mxCell>
        <mxCell id="mfL0TyV-P2WpPhHrdN5V-66" value="" style="strokeWidth=2;html=1;shape=mxgraph.flowchart.annotation_2;align=left;labelPosition=right;pointerEvents=1;labelBackgroundColor=none;" parent="1" vertex="1">
          <mxGeometry x="561" y="190" width="50" height="40" as="geometry" />
        </mxCell>
        <mxCell id="mfL0TyV-P2WpPhHrdN5V-67" value="IV PV" style="text;html=1;align=right;verticalAlign=middle;resizable=0;points=[];autosize=1;strokeColor=none;fillColor=none;labelBackgroundColor=none;fontSize=12;" parent="1" vertex="1">
          <mxGeometry x="505" y="197" width="50" height="30" as="geometry" />
        </mxCell>
        <mxCell id="mfL0TyV-P2WpPhHrdN5V-68" value="FF&lt;br&gt;256" style="whiteSpace=wrap;html=1;aspect=fixed;labelBackgroundColor=none;" parent="1" vertex="1">
          <mxGeometry x="635" y="240" width="40" height="40" as="geometry" />
        </mxCell>
        <mxCell id="mfL0TyV-P2WpPhHrdN5V-69" value="" style="strokeWidth=2;html=1;shape=mxgraph.flowchart.annotation_2;align=left;labelPosition=right;pointerEvents=1;labelBackgroundColor=none;" parent="1" vertex="1">
          <mxGeometry x="561" y="240" width="50" height="40" as="geometry" />
        </mxCell>
        <mxCell id="mfL0TyV-P2WpPhHrdN5V-70" value="IV atk" style="text;html=1;align=right;verticalAlign=middle;resizable=0;points=[];autosize=1;strokeColor=none;fillColor=none;labelBackgroundColor=none;fontSize=12;" parent="1" vertex="1">
          <mxGeometry x="505" y="247" width="50" height="30" as="geometry" />
        </mxCell>
        <mxCell id="mfL0TyV-P2WpPhHrdN5V-71" value="FF&lt;br&gt;256" style="whiteSpace=wrap;html=1;aspect=fixed;labelBackgroundColor=none;" parent="1" vertex="1">
          <mxGeometry x="635" y="290" width="40" height="40" as="geometry" />
        </mxCell>
        <mxCell id="mfL0TyV-P2WpPhHrdN5V-72" value="" style="strokeWidth=2;html=1;shape=mxgraph.flowchart.annotation_2;align=left;labelPosition=right;pointerEvents=1;labelBackgroundColor=none;" parent="1" vertex="1">
          <mxGeometry x="561" y="290" width="50" height="40" as="geometry" />
        </mxCell>
        <mxCell id="mfL0TyV-P2WpPhHrdN5V-73" value="IV def" style="text;html=1;align=right;verticalAlign=middle;resizable=0;points=[];autosize=1;strokeColor=none;fillColor=none;labelBackgroundColor=none;fontSize=12;" parent="1" vertex="1">
          <mxGeometry x="505" y="297" width="50" height="30" as="geometry" />
        </mxCell>
        <mxCell id="mfL0TyV-P2WpPhHrdN5V-78" value="FF&lt;br&gt;256" style="whiteSpace=wrap;html=1;aspect=fixed;labelBackgroundColor=none;" parent="1" vertex="1">
          <mxGeometry x="635" y="340" width="40" height="40" as="geometry" />
        </mxCell>
        <mxCell id="mfL0TyV-P2WpPhHrdN5V-79" value="" style="strokeWidth=2;html=1;shape=mxgraph.flowchart.annotation_2;align=left;labelPosition=right;pointerEvents=1;labelBackgroundColor=none;" parent="1" vertex="1">
          <mxGeometry x="561" y="340" width="50" height="40" as="geometry" />
        </mxCell>
        <mxCell id="mfL0TyV-P2WpPhHrdN5V-80" value="IV atk spe" style="text;html=1;align=right;verticalAlign=middle;resizable=0;points=[];autosize=1;strokeColor=none;fillColor=none;labelBackgroundColor=none;fontSize=12;" parent="1" vertex="1">
          <mxGeometry x="475" y="347" width="80" height="30" as="geometry" />
        </mxCell>
        <mxCell id="mfL0TyV-P2WpPhHrdN5V-81" value="FF&lt;br&gt;256" style="whiteSpace=wrap;html=1;aspect=fixed;labelBackgroundColor=none;" parent="1" vertex="1">
          <mxGeometry x="635" y="390" width="40" height="40" as="geometry" />
        </mxCell>
        <mxCell id="mfL0TyV-P2WpPhHrdN5V-82" value="" style="strokeWidth=2;html=1;shape=mxgraph.flowchart.annotation_2;align=left;labelPosition=right;pointerEvents=1;labelBackgroundColor=none;" parent="1" vertex="1">
          <mxGeometry x="561" y="390" width="50" height="40" as="geometry" />
        </mxCell>
        <mxCell id="mfL0TyV-P2WpPhHrdN5V-83" value="IV def spe" style="text;html=1;align=right;verticalAlign=middle;resizable=0;points=[];autosize=1;strokeColor=none;fillColor=none;labelBackgroundColor=none;fontSize=12;" parent="1" vertex="1">
          <mxGeometry x="475" y="397" width="80" height="30" as="geometry" />
        </mxCell>
        <mxCell id="mfL0TyV-P2WpPhHrdN5V-84" value="FF&lt;br&gt;256" style="whiteSpace=wrap;html=1;aspect=fixed;labelBackgroundColor=none;" parent="1" vertex="1">
          <mxGeometry x="635" y="440" width="40" height="40" as="geometry" />
        </mxCell>
        <mxCell id="mfL0TyV-P2WpPhHrdN5V-85" value="" style="strokeWidth=2;html=1;shape=mxgraph.flowchart.annotation_2;align=left;labelPosition=right;pointerEvents=1;labelBackgroundColor=none;" parent="1" vertex="1">
          <mxGeometry x="561" y="440" width="50" height="40" as="geometry" />
        </mxCell>
        <mxCell id="mfL0TyV-P2WpPhHrdN5V-86" value="IV speed" style="text;html=1;align=right;verticalAlign=middle;resizable=0;points=[];autosize=1;strokeColor=none;fillColor=none;labelBackgroundColor=none;fontSize=12;" parent="1" vertex="1">
          <mxGeometry x="485" y="447" width="70" height="30" as="geometry" />
        </mxCell>
        <mxCell id="mfL0TyV-P2WpPhHrdN5V-87" value="FF&lt;br&gt;256" style="whiteSpace=wrap;html=1;aspect=fixed;labelBackgroundColor=none;" parent="1" vertex="1">
          <mxGeometry x="635" y="490" width="40" height="40" as="geometry" />
        </mxCell>
        <mxCell id="mfL0TyV-P2WpPhHrdN5V-88" value="" style="strokeWidth=2;html=1;shape=mxgraph.flowchart.annotation_2;align=left;labelPosition=right;pointerEvents=1;labelBackgroundColor=none;" parent="1" vertex="1">
          <mxGeometry x="561" y="490" width="50" height="40" as="geometry" />
        </mxCell>
        <mxCell id="mfL0TyV-P2WpPhHrdN5V-89" value="EV PV" style="text;html=1;align=right;verticalAlign=middle;resizable=0;points=[];autosize=1;strokeColor=none;fillColor=none;labelBackgroundColor=none;fontSize=12;" parent="1" vertex="1">
          <mxGeometry x="495" y="497" width="60" height="30" as="geometry" />
        </mxCell>
        <mxCell id="mfL0TyV-P2WpPhHrdN5V-90" value="FF&lt;br&gt;256" style="whiteSpace=wrap;html=1;aspect=fixed;labelBackgroundColor=none;" parent="1" vertex="1">
          <mxGeometry x="635" y="540" width="40" height="40" as="geometry" />
        </mxCell>
        <mxCell id="mfL0TyV-P2WpPhHrdN5V-91" value="" style="strokeWidth=2;html=1;shape=mxgraph.flowchart.annotation_2;align=left;labelPosition=right;pointerEvents=1;labelBackgroundColor=none;" parent="1" vertex="1">
          <mxGeometry x="561" y="540" width="50" height="40" as="geometry" />
        </mxCell>
        <mxCell id="mfL0TyV-P2WpPhHrdN5V-92" value="EV atk" style="text;html=1;align=right;verticalAlign=middle;resizable=0;points=[];autosize=1;strokeColor=none;fillColor=none;labelBackgroundColor=none;fontSize=12;" parent="1" vertex="1">
          <mxGeometry x="495" y="547" width="60" height="30" as="geometry" />
        </mxCell>
        <mxCell id="mfL0TyV-P2WpPhHrdN5V-93" value="FF&lt;br&gt;256" style="whiteSpace=wrap;html=1;aspect=fixed;labelBackgroundColor=none;" parent="1" vertex="1">
          <mxGeometry x="635" y="590" width="40" height="40" as="geometry" />
        </mxCell>
        <mxCell id="mfL0TyV-P2WpPhHrdN5V-94" value="" style="strokeWidth=2;html=1;shape=mxgraph.flowchart.annotation_2;align=left;labelPosition=right;pointerEvents=1;labelBackgroundColor=none;" parent="1" vertex="1">
          <mxGeometry x="561" y="590" width="50" height="40" as="geometry" />
        </mxCell>
        <mxCell id="mfL0TyV-P2WpPhHrdN5V-95" value="EV def" style="text;html=1;align=right;verticalAlign=middle;resizable=0;points=[];autosize=1;strokeColor=none;fillColor=none;labelBackgroundColor=none;fontSize=12;" parent="1" vertex="1">
          <mxGeometry x="495" y="597" width="60" height="30" as="geometry" />
        </mxCell>
        <mxCell id="mfL0TyV-P2WpPhHrdN5V-96" value="FF&lt;br&gt;256" style="whiteSpace=wrap;html=1;aspect=fixed;labelBackgroundColor=none;" parent="1" vertex="1">
          <mxGeometry x="635" y="640" width="40" height="40" as="geometry" />
        </mxCell>
        <mxCell id="mfL0TyV-P2WpPhHrdN5V-97" value="" style="strokeWidth=2;html=1;shape=mxgraph.flowchart.annotation_2;align=left;labelPosition=right;pointerEvents=1;labelBackgroundColor=none;" parent="1" vertex="1">
          <mxGeometry x="561" y="640" width="50" height="40" as="geometry" />
        </mxCell>
        <mxCell id="mfL0TyV-P2WpPhHrdN5V-98" value="FF&lt;br&gt;256" style="whiteSpace=wrap;html=1;aspect=fixed;labelBackgroundColor=none;" parent="1" vertex="1">
          <mxGeometry x="635" y="690" width="40" height="40" as="geometry" />
        </mxCell>
        <mxCell id="mfL0TyV-P2WpPhHrdN5V-99" value="" style="strokeWidth=2;html=1;shape=mxgraph.flowchart.annotation_2;align=left;labelPosition=right;pointerEvents=1;labelBackgroundColor=none;" parent="1" vertex="1">
          <mxGeometry x="561" y="690" width="50" height="40" as="geometry" />
        </mxCell>
        <mxCell id="mfL0TyV-P2WpPhHrdN5V-100" value="FF&lt;br&gt;256" style="whiteSpace=wrap;html=1;aspect=fixed;labelBackgroundColor=none;" parent="1" vertex="1">
          <mxGeometry x="635" y="740" width="40" height="40" as="geometry" />
        </mxCell>
        <mxCell id="mfL0TyV-P2WpPhHrdN5V-101" value="" style="strokeWidth=2;html=1;shape=mxgraph.flowchart.annotation_2;align=left;labelPosition=right;pointerEvents=1;labelBackgroundColor=none;" parent="1" vertex="1">
          <mxGeometry x="561" y="740" width="50" height="40" as="geometry" />
        </mxCell>
        <mxCell id="mfL0TyV-P2WpPhHrdN5V-102" value="EV atk spe" style="text;html=1;align=right;verticalAlign=middle;resizable=0;points=[];autosize=1;strokeColor=none;fillColor=none;labelBackgroundColor=none;fontSize=12;" parent="1" vertex="1">
          <mxGeometry x="475" y="647" width="80" height="30" as="geometry" />
        </mxCell>
        <mxCell id="mfL0TyV-P2WpPhHrdN5V-103" value="EV def spe" style="text;html=1;align=right;verticalAlign=middle;resizable=0;points=[];autosize=1;strokeColor=none;fillColor=none;labelBackgroundColor=none;fontSize=12;" parent="1" vertex="1">
          <mxGeometry x="475" y="697" width="80" height="30" as="geometry" />
        </mxCell>
        <mxCell id="mfL0TyV-P2WpPhHrdN5V-104" value="EV speed" style="text;html=1;align=right;verticalAlign=middle;resizable=0;points=[];autosize=1;strokeColor=none;fillColor=none;labelBackgroundColor=none;fontSize=12;" parent="1" vertex="1">
          <mxGeometry x="475" y="747" width="80" height="30" as="geometry" />
        </mxCell>
        <mxCell id="EzLNX4KlcgkMV2vG-WTn-15" value="FF&lt;br&gt;256" style="whiteSpace=wrap;html=1;aspect=fixed;labelBackgroundColor=none;" parent="1" vertex="1">
          <mxGeometry x="7" y="10" width="40" height="40" as="geometry" />
        </mxCell>
        <mxCell id="EzLNX4KlcgkMV2vG-WTn-16" value="FF&lt;br&gt;256" style="whiteSpace=wrap;html=1;aspect=fixed;labelBackgroundColor=none;" parent="1" vertex="1">
          <mxGeometry x="7" y="50" width="40" height="40" as="geometry" />
        </mxCell>
        <mxCell id="EzLNX4KlcgkMV2vG-WTn-17" value="FF&lt;br&gt;256" style="whiteSpace=wrap;html=1;aspect=fixed;labelBackgroundColor=none;" parent="1" vertex="1">
          <mxGeometry x="7" y="90" width="40" height="40" as="geometry" />
        </mxCell>
        <mxCell id="EzLNX4KlcgkMV2vG-WTn-18" value="FF&lt;br&gt;256" style="whiteSpace=wrap;html=1;aspect=fixed;labelBackgroundColor=none;" parent="1" vertex="1">
          <mxGeometry x="7" y="130" width="40" height="40" as="geometry" />
        </mxCell>
        <mxCell id="EzLNX4KlcgkMV2vG-WTn-19" value="" style="strokeWidth=2;html=1;shape=mxgraph.flowchart.annotation_2;align=left;labelPosition=right;pointerEvents=1;labelBackgroundColor=none;" parent="1" vertex="1">
          <mxGeometry x="-20" y="10" width="20" height="160" as="geometry" />
        </mxCell>
        <mxCell id="EzLNX4KlcgkMV2vG-WTn-20" value="Tag" style="text;html=1;align=right;verticalAlign=middle;resizable=0;points=[];autosize=1;strokeColor=none;fillColor=none;labelBackgroundColor=none;fontSize=12;" parent="1" vertex="1">
          <mxGeometry x="-66" y="75.5" width="40" height="30" as="geometry" />
        </mxCell>
        <mxCell id="EzLNX4KlcgkMV2vG-WTn-24" value="FF&lt;br&gt;256" style="whiteSpace=wrap;html=1;aspect=fixed;labelBackgroundColor=none;" parent="1" vertex="1">
          <mxGeometry x="150" y="130" width="40" height="40" as="geometry" />
        </mxCell>
        <mxCell id="EzLNX4KlcgkMV2vG-WTn-25" value="FF&lt;br&gt;256" style="whiteSpace=wrap;html=1;aspect=fixed;labelBackgroundColor=none;" parent="1" vertex="1">
          <mxGeometry x="150" y="90" width="40" height="40" as="geometry" />
        </mxCell>
        <mxCell id="EzLNX4KlcgkMV2vG-WTn-26" value="FF&lt;br&gt;256" style="whiteSpace=wrap;html=1;aspect=fixed;labelBackgroundColor=none;" parent="1" vertex="1">
          <mxGeometry x="150" y="50" width="40" height="40" as="geometry" />
        </mxCell>
        <mxCell id="EzLNX4KlcgkMV2vG-WTn-27" value="FF&lt;br&gt;256" style="whiteSpace=wrap;html=1;aspect=fixed;labelBackgroundColor=none;" parent="1" vertex="1">
          <mxGeometry x="150" y="10" width="40" height="40" as="geometry" />
        </mxCell>
        <mxCell id="wN1BnI0OUt89YUy-YWgy-1" value="" style="strokeWidth=2;html=1;shape=mxgraph.flowchart.annotation_2;align=left;labelPosition=right;pointerEvents=1;labelBackgroundColor=none;" parent="1" vertex="1">
          <mxGeometry x="120" y="580" width="20" height="40" as="geometry" />
        </mxCell>
        <mxCell id="wN1BnI0OUt89YUy-YWgy-2" value="Happiness" style="text;html=1;align=right;verticalAlign=middle;resizable=0;points=[];autosize=1;strokeColor=none;fillColor=none;labelBackgroundColor=none;fontSize=12;" parent="1" vertex="1">
          <mxGeometry x="34" y="582.75" width="80" height="30" as="geometry" />
        </mxCell>
        <mxCell id="xdNcesQXWwHP4Eqz2SC2-2" value="" style="strokeWidth=2;html=1;shape=mxgraph.flowchart.annotation_2;align=left;labelPosition=right;pointerEvents=1;labelBackgroundColor=none;" vertex="1" parent="1">
          <mxGeometry x="120" y="630" width="20" height="40" as="geometry" />
        </mxCell>
        <mxCell id="xdNcesQXWwHP4Eqz2SC2-3" value="Meta" style="text;html=1;align=right;verticalAlign=middle;resizable=0;points=[];autosize=1;strokeColor=none;fillColor=none;labelBackgroundColor=none;fontSize=12;" vertex="1" parent="1">
          <mxGeometry x="64" y="631.25" width="50" height="30" as="geometry" />
        </mxCell>
      </root>
    </mxGraphModel>
  </diagram>
</mxfile>
